<?xml version="1.0" standalone="no"?>
<!DOCTYPE svg PUBLIC "-//W3C//DTD SVG 20010904//EN"
 "http://www.w3.org/TR/2001/REC-SVG-20010904/DTD/svg10.dtd">
<svg version="1.0" xmlns="http://www.w3.org/2000/svg"
 width="1024.000000pt" height="1024.000000pt" viewBox="0 0 1024.000000 1024.000000"
 preserveAspectRatio="xMidYMid meet">
<metadata>
Created by potrace 1.16, written by Peter Selinger 2001-2019
</metadata>
<g transform="translate(0.000000,1024.000000) scale(0.100000,-0.100000)"
fill="#000000" stroke="#000000" stroke-width="200" stroke-linejoin="round">
<path d="M5055 9328 c-2 -7 -6 -56 -10 -108 -25 -380 -209 -744 -505 -998
-193 -166 -391 -264 -648 -323 -124 -28 -423 -36 -592 -16 -540 65 -990 290
-1199 600 -40 60 -71 147 -71 203 0 51 -22 70 -64 55 l-25 -10 6 -1993 c2
-1096 8 -2281 13 -2633 l8 -640 31 -123 c161 -634 628 -1113 1589 -1632 85
-45 391 -199 680 -342 485 -240 773 -390 813 -424 23 -21 31 -18 126 37 49 28
372 192 718 364 652 325 926 471 1162 621 733 467 1104 951 1178 1539 11 90
15 579 20 2667 l7 2556 -21 11 c-38 21 -57 0 -70 -80 -49 -298 -459 -602 -976
-724 -185 -44 -282 -56 -485 -62 -245 -7 -367 9 -558 72 -230 77 -412 194
-589 378 -245 257 -393 586 -420 933 l-6 84 -54 0 c-34 0 -55 -5 -58 -12z
m159 -588 c139 -328 426 -635 743 -794 112 -57 300 -120 423 -143 133 -24 461
-24 620 1 338 51 649 163 874 313 113 75 237 189 288 263 18 27 37 50 42 50 5
0 6 -35 3 -77 -4 -43 -9 -1129 -12 -2413 -4 -1426 -10 -2370 -16 -2425 -12
-107 -49 -262 -86 -354 -230 -580 -764 -1029 -1873 -1573 -584 -286 -940 -465
-1014 -511 l-90 -54 -90 56 c-154 95 -289 242 -331 362 -55 155 -11 356 116
535 42 58 418 457 1349 1429 119 124 370 387 668 700 95 99 172 187 172 196 0
8 -10 25 -23 37 l-23 21 -287 -299 -288 -300 -640 0 c-353 0 -639 4 -637 9 3
8 383 417 708 761 323 342 568 605 591 633 l22 29 -27 26 -26 26 -55 -54 -56
-55 -954 -3 c-525 -1 -955 0 -955 4 0 8 17 26 711 765 327 349 676 720 774
824 151 162 183 191 216 199 35 8 39 12 39 41 0 32 0 32 -61 39 -34 3 -409 6
-832 6 l-770 0 46 31 c26 17 76 62 111 101 288 310 492 922 548 1640 l11 150
22 -63 c12 -35 34 -93 49 -129z m-184 -109 c-36 -386 -143 -794 -287 -1089
-86 -176 -165 -293 -261 -383 -98 -92 -182 -136 -289 -153 l-78 -12 0 -34 0
-35 891 -5 892 -5 -141 -150 c-78 -82 -290 -307 -472 -500 -182 -192 -494
-524 -694 -737 -249 -267 -371 -390 -389 -394 -38 -9 -62 -33 -62 -61 l0 -23
1016 0 c636 0 1014 -4 1012 -9 -1 -6 -131 -146 -288 -313 -856 -908 -1532
-1633 -1538 -1647 -1 -4 10 -19 25 -33 l28 -26 125 132 c69 72 206 218 305
324 l179 192 638 0 c351 0 638 -3 638 -6 0 -6 -368 -395 -750 -794 -502 -524
-728 -766 -776 -831 -190 -255 -222 -512 -89 -732 l35 -57 -28 14 c-15 8 -191
95 -392 193 -615 303 -899 458 -1185 648 -216 145 -359 259 -511 410 -254 252
-390 470 -480 769 -50 165 -54 217 -59 771 -3 286 -7 1391 -10 2455 -4 1476
-2 1930 7 1915 56 -96 180 -215 327 -312 298 -198 780 -333 1184 -333 549 0
1022 250 1325 702 64 95 127 213 144 270 19 64 22 24 8 -121z"/>
</g>
</svg>
