<svg id="svg" version="1.1" viewBox="0 0 300 300" width="300" height="300" xmlns="http://www.w3.org/2000/svg"><svg xmlns="http://www.w3.org/2000/svg"><defs><clipPath id="clip-1"><rect x="0" y="0" transform="scale(0.14648,0.14648)" width="2048" height="2048" fill="none"/></clipPath></defs><g clip-path="url(#clip-1)" fill="none" fill-rule="nonzero" stroke="none" stroke-width="1" stroke-linecap="butt" stroke-linejoin="miter" stroke-miterlimit="10" stroke-dasharray="" stroke-dashoffset="0" font-family="none" font-weight="none" font-size="none" text-anchor="none" style="mix-blend-mode: normal"><path d="M0,0h300v300h-300z" fill="none"/><path d="M148.86035,34.76514c4.08691,-0.2165 3.04688,0.66182 3.62402,4.1291c1.56299,9.36812 7.979,18.25854 15.25635,24.04951c10.07227,8.01621 22.04736,10.59316 34.63184,8.81235c10.39307,-1.46265 21.27832,-5.34214 28.51172,-13.24277c1.86182,-2.0335 1.5,-3.92549 2.63232,-5.37964c0.86133,-0.50186 2.68799,-0.29414 3.75439,-0.25327c0.07764,1.89741 0.00732,4.34517 0.00732,6.29312l-0.07031,14.14307l-0.13037,38.94858l-0.08789,42.61567l-0.02344,16.69922c-0.01025,7.15283 0.41602,14.03613 -1.6626,20.98096c-6.24023,20.8418 -27.04834,35.17383 -44.9165,45.68408c-7.91895,4.61426 -15.97705,8.98682 -24.16113,13.11328c-5.12695,2.58398 -10.3418,5.01855 -15.41895,7.69629c-0.16113,0.07617 -0.80273,0.37793 -0.89062,0.34131c-2.27051,-0.93896 -6.33955,-3.08936 -8.44014,-4.12354c-7.47363,-3.7207 -14.88223,-7.57031 -22.22241,-11.54736c-24.17856,-13.19092 -56.7687,-32.64258 -56.43208,-64.19678c0.04072,-3.8042 -0.00117,-7.62451 -0.00132,-11.43164l-0.00718,-23.93291l-0.05156,-91.29214c0.78911,-0.03574 2.55894,-0.173 3.24727,0.09404c0.65215,0.25298 1.30928,2.65459 1.77495,3.55884c3.14619,6.11104 12.47358,10.76221 18.69976,12.79644c12.03926,3.93369 26.49434,4.35996 37.98691,-1.53926c9.86938,-5.0458 17.98447,-13.61279 21.72012,-24.12539c1.004,-2.82568 1.07432,-5.19038 1.60898,-8.0666c0.08643,-0.46699 0.65918,-0.68174 1.06055,-0.82456z" fill="#0d1117"/><path d="M147.59766,51.52134c0.16553,1.12134 -0.33838,3.31729 -0.63867,4.43672c-4.07036,15.12788 -11.18628,30.25371 -23.83608,40.0478c-1.1792,0.91289 -2.57461,1.58994 -3.70913,2.55c-0.12422,0.46729 -0.06504,0.52222 0.06035,0.98672c0.79292,0.24683 6.69287,0.17183 7.8665,0.18296l25.55977,0.04102c3.80127,0.0041 9.19629,-0.14443 12.89941,0.12495c-1.72119,2.0707 -4.05762,4.48125 -5.90918,6.50859l-11.91797,13.00298l-28.70244,31.38062c4.29243,0.22705 10.19297,0.09082 14.58369,0.08936l27.78281,0.03516c3.15967,0.02637 6.75586,-0.07324 9.84375,0.09814c-13.24512,13.79736 -26.17559,27.95508 -39.35098,41.82275c-3.43711,3.61816 -6.93867,7.41064 -10.20176,11.18848c1.28394,-0.91699 2.60625,-1.95264 3.86719,-2.9165c5.43105,-4.14697 11.07437,-8.15186 16.30488,-12.54639l32.95342,-0.00732c-1.80176,2.12988 -4.69775,5.02588 -6.65625,7.03418c-5.51221,6.04102 -11.47119,11.76123 -16.97461,17.79346c-8.72886,9.56543 -21.38965,18.50684 -16.34824,33.12891c-7.20293,-3.71484 -14.3124,-7.6084 -21.32183,-11.67627c-20.96001,-12.18604 -46.9563,-29.35107 -45.94102,-56.93115c0.11558,-3.14355 0.00205,-6.56836 0.00249,-9.73242l-0.00527,-23.28076l-0.08174,-81.29546c2.03335,2.30581 6.08789,5.03555 8.94316,6.48809c12.62021,6.41997 28.37432,9.16611 42.09316,5.03599c12.70913,-3.82603 22.66055,-11.95298 28.83457,-23.59058z" fill="#4a9eff"/><path d="M72.16157,71.22759c0.98672,0.43081 2.05605,1.25347 3.3019,1.79648c-0.11704,5.83242 -0.02388,11.99707 -0.01743,17.84912l0.28462,49.1209l0.12773,24.63677c0.00937,6.21387 -0.54829,16.00781 0.9854,21.95508c5.49697,21.31201 27.04043,35.06104 44.06074,46.82373c1.66143,1.14697 6.10737,3.47607 7.04487,4.62744c-1.35146,-0.76904 -2.73604,-1.52637 -4.09717,-2.26904c-14.50386,-7.90723 -29.0606,-16.4751 -40.26943,-28.83545c-7.31118,-8.06104 -11.88589,-18.14795 -11.49185,-29.19287c0.11968,-3.35449 0.02769,-6.98291 0.0208,-10.37695l-0.00791,-30.27583l0.01055,-45.52017l-0.0104,-12.55034c-0.00645,-2.54077 -0.07983,-5.273 0.05757,-7.78887z" fill="#0d1117"/><path d="M151.72119,50.89644c0.3457,0.32563 0.92725,1.41958 1.18213,1.90137c1.89551,3.58286 4.27002,6.62109 7.08105,9.53818c8.68945,9.10386 20.63379,14.39224 33.2168,14.70659c13.16895,0.24492 29.3335,-4.06025 38.96777,-13.35908c0.13623,9.99873 -0.03955,20.31211 -0.08203,30.32271l-0.05713,45.68394l0.00439,26.26055c0.00439,7.85596 0.646,16.35645 -1.26562,24.02344c-6.00879,24.08936 -38.07129,42 -58.75195,52.62158l-14.41699,7.30664c-2.35107,1.19678 -5.34521,2.62793 -7.56885,3.96533c-5.76606,-3.23584 -10.59214,-8.3291 -9.11807,-15.43506c1.2334,-5.9458 7.09072,-10.98926 11.18789,-15.2417l13.08838,-13.58203c9.20508,-9.51709 18.29443,-19.14551 27.26807,-28.88232c2.55322,-2.73779 5.09033,-5.49023 7.61133,-8.25732c1.7124,-1.88086 3.61963,-3.90967 5.09619,-5.9707c-1.77686,1.0166 -3.55225,2.43457 -5.26758,3.55518c-5.17969,3.38232 -10.56885,7.80762 -15.79395,10.96582c-10.17627,-0.07764 -20.354,-0.09668 -30.53027,-0.05859c11.84473,-12.42041 23.59717,-24.92725 35.25586,-37.52227c-17.45947,-0.19277 -35.3335,0.28477 -52.71826,-0.08628l32.13281,-35.24487c4.51611,-4.99014 9.64307,-10.42427 13.99951,-15.5209c-1.80615,-0.19541 -4.4209,-0.13594 -6.27686,-0.13682l-9.40283,-0.00703l-29.81382,-0.18369c1.45151,-1.72456 2.53799,-2.74263 3.92886,-4.75752c6.13154,-8.8834 9.42012,-19.78799 10.69014,-30.43257c0.22705,-1.91133 0.26953,-4.23252 0.35303,-6.17256z" fill="#4a9eff"/><path d="M224.36572,73.18931c1.16748,-0.60015 2.28223,-1.26694 3.41455,-1.92949l-0.00439,75.19849l0.00586,21.26045c0.00146,6.1875 0.47754,15.61816 -1.22754,21.26807c-7.05469,23.36865 -33.4541,37.59521 -53.39502,48.34717l-0.23584,-0.21533c4.7666,-2.60889 9.65332,-5.96484 14.13574,-9.14502c14.17676,-10.06201 30.14063,-22.18213 35.55176,-39.49365c1.58643,-5.08008 1.43994,-9.43213 1.43555,-14.60449l0.00732,-11.54736l0.2124,-37.16484l0.14648,-34.8665c0.00879,-4.96963 0.23438,-12.25342 -0.04687,-17.10747z" fill="#0d1117"/><path d="M172.92334,237.11865l0.23584,0.21533c-0.59473,0.37646 -1.62158,1.02393 -2.29395,1.14111l0.09082,-0.18604l0.09668,0.16992l0.09521,-0.02783l-0.04102,-0.26367c0.51563,-0.35449 1.25537,-0.73682 1.81641,-1.04883z" fill="#1e3a5f"/></g></svg></svg>